<svg xmlns="http://www.w3.org/2000/svg" viewBox="0 0 100 100" width="100" height="100">
  <defs>
    <linearGradient id="figureGradient" x1="0%" y1="0%" x2="100%" y2="100%">
      <stop offset="0%" style="stop-color:#00bfff;stop-opacity:1" />
      <stop offset="50%" style="stop-color:#8a2be2;stop-opacity:1" />
      <stop offset="100%" style="stop-color:#ff1493;stop-opacity:1" />
    </linearGradient>
    <linearGradient id="speedLinesGradient" x1="0%" y1="0%" x2="100%" y2="0%">
      <stop offset="0%" style="stop-color:#00bfff;stop-opacity:1" />
      <stop offset="100%" style="stop-color:#00bfff;stop-opacity:0.2" />
    </linearGradient>
  </defs>
  
  <!-- Dark navy background -->
  <rect width="100" height="100" fill="#0f1419"/>
  
  <!-- Speed lines (horizontal lines on left) -->
  <g stroke="url(#speedLinesGradient)" stroke-width="1.2" stroke-linecap="round" fill="none">
    <line x1="8" y1="25" x2="22" y2="25"/>
    <line x1="8" y1="28" x2="20" y2="28"/>
    <line x1="8" y1="31" x2="24" y2="31"/>
    <line x1="8" y1="34" x2="18" y2="34"/>
    <line x1="8" y1="37" x2="26" y2="37"/>
    <line x1="8" y1="40" x2="20" y2="40"/>
    <line x1="8" y1="43" x2="22" y2="43"/>
    <line x1="8" y1="46" x2="18" y2="46"/>
    <line x1="8" y1="49" x2="24" y2="49"/>
  </g>
  
  <!-- Running figure outline -->
  <g stroke="url(#figureGradient)" stroke-width="2.2" stroke-linecap="round" stroke-linejoin="round" fill="none">
    <!-- Head -->
    <circle cx="65" cy="22" r="5"/>
    
    <!-- Torso -->
    <path d="M65 27 L65 48"/>
    
    <!-- Left arm (back swing) -->
    <path d="M65 32 L58 30 L54 36"/>
    
    <!-- Right arm (forward swing) -->
    <path d="M65 34 L72 38 L76 44"/>
    
    <!-- Left leg (back leg, straight) -->
    <path d="M65 48 L61 58 L58 68 L55 75"/>
    
    <!-- Right leg (front leg, bent/lifting) -->
    <path d="M65 48 L68 54 L72 58 L76 64"/>
    
    <!-- Left foot -->
    <ellipse cx="54" cy="76" rx="2.5" ry="1.2"/>
    
    <!-- Right foot -->
    <ellipse cx="77" cy="65" rx="2.5" ry="1.2"/>
  </g>
</svg>